<svg width="24" height="24" viewBox="0 0 24 24" fill="none" xmlns="http://www.w3.org/2000/svg">
<path d="M12.8 8.5V11.8H11.2V6.5C11.2 5.00883 9.99117 3.8 8.5 3.8H7.5C6.00883 3.8 4.8 5.00883 4.8 6.5V11.8H3.5C3.1134 11.8 2.8 12.1134 2.8 12.5C2.8 12.8866 3.1134 13.2 3.5 13.2H4.8V18.5C4.8 19.9912 6.00883 21.2 7.5 21.2H8.5C9.99117 21.2 11.2 19.9912 11.2 18.5V13.2H12.8V16.5C12.8 17.9912 14.0088 19.2 15.5 19.2H16.5C17.9912 19.2 19.2 17.9912 19.2 16.5V13.2H20.5C20.8866 13.2 21.2 12.8866 21.2 12.5C21.2 12.1134 20.8866 11.8 20.5 11.8H19.2V8.5C19.2 7.00883 17.9912 5.8 16.5 5.8H15.5C14.0088 5.8 12.8 7.00883 12.8 8.5ZM14.2 8.5C14.2 7.78203 14.782 7.2 15.5 7.2H16.5C17.218 7.2 17.8 7.78203 17.8 8.5V16.5C17.8 17.218 17.218 17.8 16.5 17.8H15.5C14.782 17.8 14.2 17.218 14.2 16.5V8.5ZM6.2 6.5C6.2 5.78203 6.78203 5.2 7.5 5.2H8.5C9.21797 5.2 9.8 5.78203 9.8 6.5V18.5C9.8 19.218 9.21797 19.8 8.5 19.8H7.5C6.78203 19.8 6.2 19.218 6.2 18.5V6.5Z" fill="black" stroke="black" stroke-width="0.4"/>
</svg>
