<svg width="24" height="24" viewBox="0 0 24 24" fill="none" xmlns="http://www.w3.org/2000/svg">
<path d="M18.5 14.2C19.218 14.2 19.8 14.782 19.8 15.5V16.5C19.8 17.218 19.218 17.8 18.5 17.8H8.5C7.78203 17.8 7.2 17.218 7.2 16.5V15.5C7.2 14.782 7.78203 14.2 8.5 14.2H18.5ZM21.2 16.5V15.5C21.2 14.0088 19.9912 12.8 18.5 12.8H8.5C7.00883 12.8 5.8 14.0088 5.8 15.5V16.5C5.8 17.9912 7.00883 19.2 8.5 19.2H18.5C19.9912 19.2 21.2 17.9912 21.2 16.5ZM18.2 8.5V7.5C18.2 6.00883 16.9912 4.8 15.5 4.8H8.5C7.00883 4.8 5.8 6.00883 5.8 7.5V8.5C5.8 9.99117 7.00883 11.2 8.5 11.2H15.5C16.9912 11.2 18.2 9.99117 18.2 8.5ZM15.5 6.2C16.218 6.2 16.8 6.78203 16.8 7.5V8.5C16.8 9.21797 16.218 9.8 15.5 9.8H8.5C7.78203 9.8 7.2 9.21797 7.2 8.5V7.5C7.2 6.78203 7.78203 6.2 8.5 6.2H15.5ZM3.5 2.8C3.1134 2.8 2.8 3.1134 2.8 3.5V20.5C2.8 20.8866 3.1134 21.2 3.5 21.2C3.8866 21.2 4.2 20.8866 4.2 20.5V3.5C4.2 3.1134 3.8866 2.8 3.5 2.8Z" fill="black" stroke="black" stroke-width="0.4"/>
</svg>
