<svg width="24" height="24" viewBox="0 0 24 24" fill="none" xmlns="http://www.w3.org/2000/svg">
<path d="M2.8 20.5C2.8 20.8866 3.1134 21.2 3.5 21.2H20.5C20.8866 21.2 21.2 20.8866 21.2 20.5C21.2 20.1134 20.8866 19.8 20.5 19.8H3.5C3.1134 19.8 2.8 20.1134 2.8 20.5ZM7.5 2.8C6.00883 2.8 4.8 4.00883 4.8 5.5V15.5C4.8 16.9912 6.00883 18.2 7.5 18.2H8.5C9.99117 18.2 11.2 16.9912 11.2 15.5V5.5C11.2 4.00883 9.99117 2.8 8.5 2.8H7.5ZM6.2 15.5V5.5C6.2 4.78203 6.78203 4.2 7.5 4.2H8.5C9.21797 4.2 9.8 4.78203 9.8 5.5V15.5C9.8 16.218 9.21797 16.8 8.5 16.8H7.5C6.78203 16.8 6.2 16.218 6.2 15.5ZM15.5 5.8C14.0088 5.8 12.8 7.00883 12.8 8.5V15.5C12.8 16.9912 14.0088 18.2 15.5 18.2H16.5C17.9912 18.2 19.2 16.9912 19.2 15.5V8.5C19.2 7.00883 17.9912 5.8 16.5 5.8H15.5ZM14.2 15.5V8.5C14.2 7.78203 14.782 7.2 15.5 7.2H16.5C17.218 7.2 17.8 7.78203 17.8 8.5V15.5C17.8 16.218 17.218 16.8 16.5 16.8H15.5C14.782 16.8 14.2 16.218 14.2 15.5Z" fill="black" stroke="black" stroke-width="0.4"/>
</svg>
