<svg width="24" height="24" viewBox="0 0 24 24" fill="none" xmlns="http://www.w3.org/2000/svg">
<path d="M8.5 9.8C7.78203 9.8 7.2 9.21797 7.2 8.5V7.5C7.2 6.78203 7.78203 6.2 8.5 6.2H16.5C17.218 6.2 17.8 6.78203 17.8 7.5V8.5C17.8 9.21797 17.218 9.8 16.5 9.8H8.5ZM13.2 20.5V19.2H18.5C19.9912 19.2 21.2 17.9912 21.2 16.5V15.5C21.2 14.0088 19.9912 12.8 18.5 12.8H13.2V11.2H16.5C17.9912 11.2 19.2 9.99117 19.2 8.5V7.5C19.2 6.00883 17.9912 4.8 16.5 4.8H13.2V3.5C13.2 3.1134 12.8866 2.8 12.5 2.8C12.1134 2.8 11.8 3.1134 11.8 3.5V4.8H8.5C7.00883 4.8 5.8 6.00883 5.8 7.5V8.5C5.8 9.99117 7.00883 11.2 8.5 11.2H11.8V12.8H6.5C5.00883 12.8 3.8 14.0088 3.8 15.5V16.5C3.8 17.9912 5.00883 19.2 6.5 19.2H11.8V20.5C11.8 20.8866 12.1134 21.2 12.5 21.2C12.8866 21.2 13.2 20.8866 13.2 20.5ZM6.5 17.8C5.78203 17.8 5.2 17.218 5.2 16.5V15.5C5.2 14.782 5.78203 14.2 6.5 14.2H18.5C19.218 14.2 19.8 14.782 19.8 15.5V16.5C19.8 17.218 19.218 17.8 18.5 17.8H6.5Z" fill="black" stroke="black" stroke-width="0.4"/>
</svg>
