<svg width="96" height="91" viewBox="0 0 96 91" fill="none" xmlns="http://www.w3.org/2000/svg">
<path d="M48 0L59.2257 34.5491H95.5528L66.1636 55.9017L77.3893 90.4509L48 69.0983L18.6107 90.4509L29.8364 55.9017L0.447174 34.5491H36.7743L48 0Z" fill="#2055EC"/>
<path d="M48 11.3262L55.897 35.6307L56.6828 38.0491H59.2257H84.7809L64.1063 53.0701L62.0491 54.5648L62.8349 56.9833L70.7319 81.2877L50.0572 66.2667L48 64.7721L45.9428 66.2667L25.2681 81.2877L33.1651 56.9833L33.9509 54.5648L31.8937 53.0701L11.2191 38.0491H36.7743H39.3172L40.103 35.6307L48 11.3262Z" stroke="black" stroke-opacity="0.3" stroke-width="7"/>
</svg>
