<svg width="25" height="25" viewBox="0 0 25 25" fill="none" xmlns="http://www.w3.org/2000/svg">
<path d="M10.4749 13.6642C10.9043 14.2383 11.4522 14.7134 12.0814 15.0572C12.7106 15.4009 13.4064 15.6053 14.1215 15.6565C14.8366 15.7078 15.5544 15.6046 16.2262 15.354C16.898 15.1034 17.508 14.7113 18.0149 14.2042L21.0149 11.2042C21.9256 10.2612 22.4296 8.99819 22.4182 7.6872C22.4068 6.37622 21.881 5.12216 20.9539 4.19512C20.0269 3.26808 18.7728 2.74223 17.4619 2.73084C16.1509 2.71945 14.8879 3.22342 13.9449 4.13421L12.2249 5.84421" stroke="black" stroke-width="2" stroke-linecap="round" stroke-linejoin="round"/>
<path d="M14.4748 11.6642C14.0454 11.09 13.4975 10.615 12.8683 10.2712C12.2391 9.92747 11.5433 9.72305 10.8282 9.67183C10.113 9.62061 9.39522 9.7238 8.72346 9.97438C8.0517 10.225 7.44169 10.6171 6.93481 11.1242L3.93481 14.1242C3.02402 15.0672 2.52005 16.3302 2.53144 17.6412C2.54283 18.9522 3.06868 20.2062 3.99572 21.1333C4.92276 22.0603 6.17682 22.5861 7.4878 22.5975C8.79879 22.6089 10.0618 22.105 11.0048 21.1942L12.7148 19.4842" stroke="black" stroke-width="2" stroke-linecap="round" stroke-linejoin="round"/>
</svg>
